<svg version="1.1" xmlns="http://www.w3.org/2000/svg" viewBox="0 0 1644.672460485423 811.2042949829354" width="1644.672460485423" height="811.2042949829354" filter="invert(93%) hue-rotate(180deg)">
  <!-- svg-source:excalidraw -->
  
  <defs>
    <style class="style-fonts">
      @font-face {
        font-family: "Virgil";
        src: url("https://excalidraw.com/Virgil.woff2");
      }
      @font-face {
        font-family: "Cascadia";
        src: url("https://excalidraw.com/Cascadia.woff2");
      }
      @font-face {
        font-family: "Assistant";
        src: url("https://excalidraw.com/Assistant-Regular.woff2");
      }
    </style>
    
  </defs>
  <rect x="0" y="0" width="1644.672460485423" height="811.2042949829354" fill="#ffffff"></rect><g stroke-linecap="round" transform="translate(982.10239034902 179.62922660247546) rotate(0 97.5 38)"><path d="M0 0 C58.59 -1.35, 118.83 -2.27, 195 0 M0 0 C68.39 -0.34, 139.11 0.75, 195 0 M195 0 C193.66 17.45, 193.81 38.78, 195 76 M195 0 C193.33 16.78, 195.24 35.58, 195 76 M195 76 C133.34 79.04, 76.65 76.03, 0 76 M195 76 C128.73 75.96, 63.42 76.08, 0 76 M0 76 C0.82 46.09, -0.59 20.44, 0 0 M0 76 C-0.96 49.27, -1.09 20.33, 0 0" stroke="#1e1e1e" stroke-width="2" fill="none"></path></g><g transform="translate(1040.4324303270473 205.12922660247546) rotate(0 39.169960021972656 12.5)"><text x="39.169960021972656" y="0" font-family="Virgil, Segoe UI Emoji" font-size="20px" fill="#1e1e1e" text-anchor="middle" style="white-space: pre;" direction="ltr" dominant-baseline="text-before-edge">RPI3B+</text></g><g stroke-linecap="round" transform="translate(1380.10239034902 60.629226602475455) rotate(0 121.04510493811074 111.79354263029313)"><path d="M0 0 C61.38 1.56, 124.52 1.02, 242.09 0 M0 0 C77.46 1.71, 155.24 1.9, 242.09 0 M242.09 0 C241.9 90.01, 241.23 175.6, 242.09 223.59 M242.09 0 C241.17 85.66, 241.55 171.58, 242.09 223.59 M242.09 223.59 C152.83 223.12, 64.73 223.56, 0 223.59 M242.09 223.59 C194.31 225.37, 145.17 224.81, 0 223.59 M0 223.59 C-0.33 135.43, -2.81 47.1, 0 0 M0 223.59 C-0.52 140.34, -0.55 54.69, 0 0" stroke="#1e1e1e" stroke-width="2" fill="none"></path></g><g transform="translate(1399.10239034902 79.62922660247546) rotate(0 34.29997253417969 12.5)"><text x="0" y="0" font-family="Virgil, Segoe UI Emoji" font-size="20px" fill="#1e1e1e" text-anchor="start" style="white-space: pre;" direction="ltr" dominant-baseline="text-before-edge">RAID 1</text></g><g stroke-linecap="round" transform="translate(1402.4366005277684 141.18666898371333) rotate(0 42.84249324918568 61.1613524315961)"><path d="M0 0 C23.75 0.06, 53.48 1.71, 85.68 0 M0 0 C29.38 -0.96, 58.23 0.41, 85.68 0 M85.68 0 C88.32 47, 86.03 93.72, 85.68 122.32 M85.68 0 C84.38 48.12, 85.16 95.99, 85.68 122.32 M85.68 122.32 C61.23 124.37, 36.42 122.16, 0 122.32 M85.68 122.32 C56.46 122.51, 27.35 122.12, 0 122.32 M0 122.32 C-2.03 86.07, 0.8 47.95, 0 0 M0 122.32 C-0.07 84.89, -1.64 47.98, 0 0" stroke="#1e1e1e" stroke-width="2" fill="none"></path></g><g transform="translate(1431.8391065943367 189.84802141530943) rotate(0 13.439987182617188 12.499999999999986)"><text x="13.439987182617188" y="0" font-family="Virgil, Segoe UI Emoji" font-size="20px" fill="#1e1e1e" text-anchor="middle" style="white-space: pre;" direction="ltr" dominant-baseline="text-before-edge">1tb</text></g><g stroke-linecap="round" transform="translate(1512.6452210929144 141.48213445439734) rotate(0 42.84249324918562 61.1613524315961)"><path d="M0 0 C21.06 0.13, 39.62 0.99, 85.68 0 M0 0 C32.42 -0.41, 65.15 -0.04, 85.68 0 M85.68 0 C85.69 47.4, 86.17 95.78, 85.68 122.32 M85.68 0 C85.55 30.91, 86.29 64.28, 85.68 122.32 M85.68 122.32 C57.27 121.21, 31.98 121.39, 0 122.32 M85.68 122.32 C54.06 122.24, 24.02 123.19, 0 122.32 M0 122.32 C-2.76 94.34, -1.09 67.6, 0 0 M0 122.32 C0.55 81.62, 0.9 39.71, 0 0" stroke="#1e1e1e" stroke-width="2" fill="none"></path></g><g transform="translate(1542.047727159483 190.14348688599344) rotate(0 13.439987182617188 12.499999999999986)"><text x="13.439987182617188" y="0" font-family="Virgil, Segoe UI Emoji" font-size="20px" fill="#1e1e1e" text-anchor="middle" style="white-space: pre;" direction="ltr" dominant-baseline="text-before-edge">1tb</text></g><g stroke-linecap="round"><g transform="translate(1190.8833235179964 220.3714151270358) rotate(0 83.32126273289907 -2.068258294788251)"><path d="M0 0 C45.2 -0.8, 89.84 -4.93, 166.64 -4.14 M0 0 C36.73 1.14, 73.43 0.17, 166.64 -4.14" stroke="#1e1e1e" stroke-width="2" fill="none"></path></g><g transform="translate(1190.8833235179964 220.3714151270358) rotate(0 83.32126273289907 -2.068258294788251)"><path d="M23.17 -9.38 C18.26 -5.01, 12.78 -5.57, 0 0 M23.17 -9.38 C18.37 -6.71, 13.4 -4.71, 0 0" stroke="#1e1e1e" stroke-width="2" fill="none"></path></g><g transform="translate(1190.8833235179964 220.3714151270358) rotate(0 83.32126273289907 -2.068258294788251)"><path d="M23.78 7.71 C18.7 7.57, 13.06 2.51, 0 0 M23.78 7.71 C18.69 6.63, 13.59 4.88, 0 0" stroke="#1e1e1e" stroke-width="2" fill="none"></path></g><g transform="translate(1190.8833235179964 220.3714151270358) rotate(0 83.32126273289907 -2.068258294788251)"><path d="M143.54 5.41 C150.84 4.39, 157.58 -1.16, 166.64 -4.14 M143.54 5.41 C148.72 4.28, 153.92 2.12, 166.64 -4.14" stroke="#1e1e1e" stroke-width="2" fill="none"></path></g><g transform="translate(1190.8833235179964 220.3714151270358) rotate(0 83.32126273289907 -2.068258294788251)"><path d="M142.81 -11.67 C150.3 -8.19, 157.24 -9.23, 166.64 -4.14 M142.81 -11.67 C148.3 -9.05, 153.66 -7.46, 166.64 -4.14" stroke="#1e1e1e" stroke-width="2" fill="none"></path></g></g><mask></mask><g stroke-linecap="round" transform="translate(1368.16260592842 10) rotate(0 133.2549272785016 142.4143568697069)"><path d="M0 0 C74.78 0.39, 149.53 1.03, 266.51 0 M0 0 C90.73 -0.4, 181.13 0.37, 266.51 0 M266.51 0 C266.34 95.29, 265.58 190.91, 266.51 284.83 M266.51 0 C264.88 109.29, 265.49 219.26, 266.51 284.83 M266.51 284.83 C196.38 283.57, 127.15 283.81, 0 284.83 M266.51 284.83 C188.2 282.74, 109.36 283.5, 0 284.83 M0 284.83 C-1.72 220.81, -0.49 156.47, 0 0 M0 284.83 C1.05 227.75, 2.11 169.32, 0 0" stroke="#1e1e1e" stroke-width="2" fill="none"></path></g><g transform="translate(1393.572636407247 21.81861882736149) rotate(0 36.699966430664006 12.5)"><text x="0" y="0" font-family="Virgil, Segoe UI Emoji" font-size="20px" fill="#1e1e1e" text-anchor="start" style="white-space: pre;" direction="ltr" dominant-baseline="text-before-edge">NFS 1tb</text></g><g stroke-linecap="round" transform="translate(980.5751167118615 361.0061211651513) rotate(0 131.52802577855323 137.28514475202525)"><path d="M0 0 C63.14 -0.32, 128.08 0.09, 263.06 0 M0 0 C84.59 -0.65, 169.62 -1.45, 263.06 0 M263.06 0 C262.61 62.28, 263.42 123.89, 263.06 274.57 M263.06 0 C264.87 82.51, 264.72 166.91, 263.06 274.57 M263.06 274.57 C194.79 274.69, 128.46 274.78, 0 274.57 M263.06 274.57 C180.05 272.13, 96.92 272.81, 0 274.57 M0 274.57 C1.44 196.57, 1.12 118.45, 0 0 M0 274.57 C1.72 189.7, 1.71 104, 0 0" stroke="#1e1e1e" stroke-width="2" fill="none"></path></g><g stroke-linecap="round" transform="translate(1008.0321456622664 459.3199990198274) rotate(0 99.64244377163124 30)"><path d="M0 0 C52.13 2.76, 100.97 2.97, 199.28 0 M0 0 C47.3 -0.98, 94.25 -1.99, 199.28 0 M199.28 0 C197.84 15.07, 200.49 29.1, 199.28 60 M199.28 0 C199.54 20.98, 198.87 42.14, 199.28 60 M199.28 60 C145.55 60.6, 92.54 57.27, 0 60 M199.28 60 C134.62 57.73, 71.94 57.28, 0 60 M0 60 C1.65 38.91, -1.27 13.12, 0 0 M0 60 C-0.47 37.95, -0.04 16.86, 0 0" stroke="#1e1e1e" stroke-width="2" fill="none"></path></g><g transform="translate(1014.5946791555773 476.8199990198274) rotate(0 93.07991027832031 12.5)"><text x="93.07991027832031" y="0" font-family="Virgil, Segoe UI Emoji" font-size="20px" fill="#1e1e1e" text-anchor="middle" style="white-space: pre;" direction="ltr" dominant-baseline="text-before-edge">RPI4B+ cluster_0</text></g><g stroke-linecap="round" transform="translate(1010.2464221905249 546.2337997118747) rotate(0 99.64244377163124 30)"><path d="M0 0 C49.06 -0.18, 100.14 2.58, 199.28 0 M0 0 C78.51 -0.74, 156.85 -0.06, 199.28 0 M199.28 0 C198.66 13.03, 197.56 26.1, 199.28 60 M199.28 0 C199.27 22.32, 198.02 45.73, 199.28 60 M199.28 60 C131.66 60.6, 68.02 62.57, 0 60 M199.28 60 C148.38 57.92, 100.34 59.17, 0 60 M0 60 C0.3 35.9, -0.99 14.74, 0 0 M0 60 C1.51 46.13, 0.55 30.83, 0 0" stroke="#1e1e1e" stroke-width="2" fill="none"></path></g><g transform="translate(1020.9789538527812 563.7337997118747) rotate(0 88.909912109375 12.5)"><text x="88.909912109375" y="0" font-family="Virgil, Segoe UI Emoji" font-size="20px" fill="#1e1e1e" text-anchor="middle" style="white-space: pre;" direction="ltr" dominant-baseline="text-before-edge">RPI4B+ cluster_1</text></g><g transform="translate(1012.4606987187834 385.8060182816462) rotate(0 92.52989959716797 12.5)"><text x="0" y="0" font-family="Virgil, Segoe UI Emoji" font-size="20px" fill="#1e1e1e" text-anchor="start" style="white-space: pre;" direction="ltr" dominant-baseline="text-before-edge">Kubernetes cluster</text></g><g stroke-linecap="round"><g transform="translate(1001.8321713831427 485.8913173589291) rotate(0 -79.71395501730495 0.8857106113033524)"><path d="M0 0 C-34.67 1.92, -71.51 1.78, -159.43 1.77 M0 0 C-31.61 -1.97, -64.6 0.04, -159.43 1.77" stroke="#1e1e1e" stroke-width="2" fill="none"></path></g><g transform="translate(1001.8321713831427 485.8913173589291) rotate(0 -79.71395501730495 0.8857106113033524)"><path d="M-136.13 -7.28 C-139.55 -3.64, -145.13 -2.11, -159.43 1.77 M-136.13 -7.28 C-140.19 -6.49, -145.69 -3.01, -159.43 1.77" stroke="#1e1e1e" stroke-width="2" fill="none"></path></g><g transform="translate(1001.8321713831427 485.8913173589291) rotate(0 -79.71395501730495 0.8857106113033524)"><path d="M-135.76 9.81 C-139.26 9.53, -144.93 7.13, -159.43 1.77 M-135.76 9.81 C-140.06 7.15, -145.64 7.19, -159.43 1.77" stroke="#1e1e1e" stroke-width="2" fill="none"></path></g></g><mask></mask><g transform="translate(712.2048014869347 470.8342369667714) rotate(0 57.609962463378906 12.5)"><text x="0" y="0" font-family="Virgil, Segoe UI Emoji" font-size="20px" fill="#1e1e1e" text-anchor="start" style="white-space: pre;" direction="ltr" dominant-baseline="text-before-edge">192.168.1.20</text></g><g stroke-linecap="round"><g transform="translate(1001.3893160774909 571.7051952136051) rotate(0 -79.71395501730495 0.8857106113033524)"><path d="M0 0 C-45.7 2.26, -95.19 0.51, -159.43 1.77 M0 0 C-42.06 0.82, -82.76 0.32, -159.43 1.77" stroke="#1e1e1e" stroke-width="2" fill="none"></path></g><g transform="translate(1001.3893160774909 571.7051952136051) rotate(0 -79.71395501730495 0.8857106113033524)"><path d="M-136.06 -7.12 C-141.21 -3.05, -150.22 -2.68, -159.43 1.77 M-136.06 -7.12 C-142.99 -4.41, -148.55 -3.08, -159.43 1.77" stroke="#1e1e1e" stroke-width="2" fill="none"></path></g><g transform="translate(1001.3893160774909 571.7051952136051) rotate(0 -79.71395501730495 0.8857106113033524)"><path d="M-135.81 9.98 C-141.19 8.97, -150.27 4.25, -159.43 1.77 M-135.81 9.98 C-142.76 8.27, -148.38 5.19, -159.43 1.77" stroke="#1e1e1e" stroke-width="2" fill="none"></path></g></g><mask></mask><g transform="translate(712.6476567925862 557.533825432751) rotate(0 53.439964294433594 12.5)"><text x="0" y="0" font-family="Virgil, Segoe UI Emoji" font-size="20px" fill="#1e1e1e" text-anchor="start" style="white-space: pre;" direction="ltr" dominant-baseline="text-before-edge">192.168.1.21</text></g><g stroke-linecap="round" transform="translate(643.1193738052704 328.2348285469259) rotate(0 134.62801291811508 236.48473321800475)"><path d="M0 0 C65.6 -3.46, 128.19 -0.64, 269.26 0 M0 0 C66.79 -0.54, 134.66 0.46, 269.26 0 M269.26 0 C270.41 121.64, 270.01 242.93, 269.26 472.97 M269.26 0 C268.16 135.66, 268.58 271.51, 269.26 472.97 M269.26 472.97 C206.84 473.05, 141.82 471.44, 0 472.97 M269.26 472.97 C213.8 472.62, 159.43 474.02, 0 472.97 M0 472.97 C-2.49 370.21, -2.46 267.69, 0 0 M0 472.97 C-0.75 335.23, -0.85 197.59, 0 0" stroke="#1e1e1e" stroke-width="2" fill="none"></path></g><g transform="translate(673.2335345895856 353.9204362747241) rotate(0 84.73992156982422 12.5)"><text x="0" y="0" font-family="Virgil, Segoe UI Emoji" font-size="20px" fill="#1e1e1e" text-anchor="start" style="white-space: pre;" direction="ltr" dominant-baseline="text-before-edge">Router 192.168.1.1</text></g><g transform="translate(709.5476696530245 636.4621212805051) rotate(0 43.57997131347656 12.5)"><text x="0" y="0" font-family="Virgil, Segoe UI Emoji" font-size="20px" fill="#1e1e1e" text-anchor="start" style="white-space: pre;" direction="ltr" dominant-baseline="text-before-edge">192.168.11</text></g><g stroke-linecap="round"><g transform="translate(977.9179848779513 206.89247479836163) rotate(0 -192.64205795848704 216.99909976933026)"><path d="M0 0 C-116.06 -0.96, -232.46 -2.91, -385.28 -7.09 M0 0 C-86.61 -0.57, -172.45 -2.74, -385.28 -7.09 M-385.28 -7.09 C-387.13 163.5, -387.58 334.4, -385.28 441.08 M-385.28 -7.09 C-385.95 108.85, -385.99 224.55, -385.28 441.08 M-385.28 441.08 C-352.78 439.96, -320.62 438.85, -289.63 440.2 M-385.28 441.08 C-358.44 440.72, -331.98 440.66, -289.63 440.2" stroke="#1e1e1e" stroke-width="2" fill="none"></path></g><g transform="translate(977.9179848779513 206.89247479836163) rotate(0 -192.64205795848704 216.99909976933026)"><path d="M-313.04 448.97 C-305.89 446.75, -299.32 444.42, -289.63 440.2 M-313.04 448.97 C-308.09 447.93, -301.84 444.98, -289.63 440.2" stroke="#1e1e1e" stroke-width="2" fill="none"></path></g><g transform="translate(977.9179848779513 206.89247479836163) rotate(0 -192.64205795848704 216.99909976933026)"><path d="M-313.2 431.87 C-306.12 434.8, -299.51 437.63, -289.63 440.2 M-313.2 431.87 C-308.33 434.66, -302.04 435.55, -289.63 440.2" stroke="#1e1e1e" stroke-width="2" fill="none"></path></g></g><mask></mask><g stroke-linecap="round" transform="translate(688.2906149817431 451.348603518097) rotate(0 75.28540196078802 27.014173644753328)"><path d="M0 0 C36.3 1.23, 69.06 -2.31, 150.57 0 M0 0 C51.98 0.11, 103.14 0.32, 150.57 0 M150.57 0 C149.55 18.01, 149.45 35.89, 150.57 54.03 M150.57 0 C150.16 12.08, 149.29 24.92, 150.57 54.03 M150.57 54.03 C115.49 54.9, 77.54 53.82, 0 54.03 M150.57 54.03 C113.11 52.13, 75.89 52.77, 0 54.03 M0 54.03 C-0.86 39.45, 0.91 20.44, 0 0 M0 54.03 C0.42 34.81, -1.16 14.94, 0 0" stroke="#1e1e1e" stroke-width="2" fill="none"></path></g><g stroke-linecap="round" transform="translate(689.1763255930466 539.0339540371324) rotate(0 76.17111257209143 25.6856077277983)"><path d="M0 0 C32.51 0.29, 68.79 0.89, 152.34 0 M0 0 C46.09 -0.4, 90.38 -0.49, 152.34 0 M152.34 0 C153.71 13.38, 153.52 23.31, 152.34 51.37 M152.34 0 C151.16 17.06, 152.82 32.19, 152.34 51.37 M152.34 51.37 C114.95 48.54, 79.31 51.78, 0 51.37 M152.34 51.37 C102.83 51.9, 55.19 51.9, 0 51.37 M0 51.37 C-1.66 40.86, 0.16 30.2, 0 0 M0 51.37 C0.72 37.08, 1.07 23.67, 0 0" stroke="#1e1e1e" stroke-width="2" fill="none"></path></g><g stroke-linecap="round" transform="translate(692.7191680382601 622.2907514996509) rotate(0 65.54258523645075 24.79989711649489)"><path d="M0 0 C31.57 -0.21, 61.49 2.11, 131.09 0 M0 0 C32.79 -1.52, 67.74 -0.47, 131.09 0 M131.09 0 C129.79 17.64, 131.85 33.34, 131.09 49.6 M131.09 0 C130.62 18.09, 131.49 36.79, 131.09 49.6 M131.09 49.6 C106.55 46.98, 79.99 47.64, 0 49.6 M131.09 49.6 C84.93 51.33, 40.17 50.27, 0 49.6 M0 49.6 C1.57 35.13, -0.46 20.48, 0 0 M0 49.6 C-0.14 32.1, 0.08 15.17, 0 0" stroke="#1e1e1e" stroke-width="2" fill="none"></path></g><g stroke-linecap="round" transform="translate(10 699.994345678637) rotate(0 174.02144239900622 37.086536904706236)"><path d="M0 0 C135.36 1.71, 274.35 1.45, 348.04 0 M0 0 C137.43 -0.46, 274.47 -0.42, 348.04 0 M348.04 0 C349.38 16.27, 350.13 34.16, 348.04 74.17 M348.04 0 C348.88 19.51, 347.59 39.31, 348.04 74.17 M348.04 74.17 C253.18 75.82, 159.95 75.37, 0 74.17 M348.04 74.17 C228.28 73.83, 109.62 73.15, 0 74.17 M0 74.17 C-0.58 46.94, -0.67 21.25, 0 0 M0 74.17 C-0.08 55.12, 1.08 34.24, 0 0" stroke="#1e1e1e" stroke-width="2" fill="none"></path></g><g transform="translate(112.70117912072476 725.0990783525922) rotate(0 68.67992401123047 12.5)"><text x="0" y="0" font-family="Virgil, Segoe UI Emoji" font-size="20px" fill="#1e1e1e" text-anchor="start" style="white-space: pre;" direction="ltr" dominant-baseline="text-before-edge">Jellyfin server</text></g><g stroke-linecap="round" transform="translate(691.251154834142 713.687836228067) rotate(0 79.87869487167495 25.104732673955027)"><path d="M0 0 C39.76 -0.7, 82.51 1.24, 159.76 0 M0 0 C47.02 -1.19, 94.32 -0.28, 159.76 0 M159.76 0 C160.58 10.03, 161.28 21.3, 159.76 50.21 M159.76 0 C158.97 19.19, 158.63 36.5, 159.76 50.21 M159.76 50.21 C118.13 52.91, 79.05 51.3, 0 50.21 M159.76 50.21 C98.36 51.42, 38.32 50.51, 0 50.21 M0 50.21 C0.94 38.77, 1.32 27.44, 0 0 M0 50.21 C-0.22 36.52, -0.3 23.92, 0 0" stroke="#1e1e1e" stroke-width="2" fill="none"></path></g><g transform="translate(725.4848812077169 734.2280720522122) rotate(0 53.19996643066406 12.5)"><text x="0" y="0" font-family="Virgil, Segoe UI Emoji" font-size="20px" fill="#1e1e1e" text-anchor="start" style="white-space: pre;" direction="ltr" dominant-baseline="text-before-edge">192.168.1.10</text></g><g stroke-linecap="round"><g transform="translate(364.8896300727272 733.0869478397597) rotate(0 159.18682763712366 0.570562106226248)"><path d="M0 0 C98.86 -1.13, 197.44 -0.2, 318.37 1.14 M0 0 C76.83 -1.9, 152.55 -0.95, 318.37 1.14" stroke="#1e1e1e" stroke-width="2" fill="none"></path></g><g transform="translate(364.8896300727272 733.0869478397597) rotate(0 159.18682763712366 0.570562106226248)"><path d="M294.78 9.41 C301.99 7, 308.74 5.25, 318.37 1.14 M294.78 9.41 C301.29 6.59, 306.25 5.58, 318.37 1.14" stroke="#1e1e1e" stroke-width="2" fill="none"></path></g><g transform="translate(364.8896300727272 733.0869478397597) rotate(0 159.18682763712366 0.570562106226248)"><path d="M294.99 -7.69 C302.02 -4.78, 308.71 -1.21, 318.37 1.14 M294.99 -7.69 C301.52 -6.41, 306.43 -3.33, 318.37 1.14" stroke="#1e1e1e" stroke-width="2" fill="none"></path></g></g><mask></mask></svg>